<svg width="24" height="24" viewBox="0 0 24 24" fill="none" xmlns="http://www.w3.org/2000/svg">
<path d="M6.80009 13L9.70009 15.9C9.88342 16.0833 9.97509 16.3167 9.97509 16.6C9.97509 16.8833 9.88342 17.1167 9.70009 17.3C9.51675 17.4833 9.28342 17.575 9.00009 17.575C8.71675 17.575 8.48342 17.4833 8.30009 17.3L3.70009 12.7C3.60009 12.6 3.52909 12.4917 3.48709 12.375C3.44509 12.2583 3.42475 12.1333 3.42609 12C3.42742 11.8667 3.44842 11.7417 3.48909 11.625C3.52975 11.5083 3.60042 11.4 3.70109 11.3L8.30109 6.7C8.48442 6.51667 8.71775 6.425 9.00109 6.425C9.28442 6.425 9.51775 6.51667 9.70109 6.7C9.88442 6.88334 9.97609 7.11667 9.97609 7.4C9.97609 7.68334 9.88442 7.91667 9.70109 8.1L6.80009 11H19.0001V8C19.0001 7.71667 19.0961 7.47934 19.2881 7.288C19.4801 7.09667 19.7174 7.00067 20.0001 7C20.2828 6.99934 20.5204 7.09534 20.7131 7.288C20.9058 7.48067 21.0014 7.718 21.0001 8V11C21.0001 11.55 20.8044 12.021 20.4131 12.413C20.0218 12.805 19.5508 13.0007 19.0001 13H6.80009Z" fill="currentColor"/>
</svg>
