<svg width="184" height="171" viewBox="0 0 184 171" fill="none" xmlns="http://www.w3.org/2000/svg">
<path d="M26.9452 158.041C62.8747 175.164 121.125 175.169 157.055 158.041C192.984 140.913 192.979 113.154 157.055 96.031C121.131 78.9083 62.8747 78.9083 26.9452 96.031C-8.98434 113.154 -8.97912 140.918 26.9452 158.041Z" fill="#F5F5F5"/>
<path d="M156.93 145.387C163.547 145.387 168.911 142.83 168.911 139.677C168.911 136.524 163.547 133.968 156.93 133.968C150.312 133.968 144.948 136.524 144.948 139.677C144.948 142.83 150.312 145.387 156.93 145.387Z" fill="#EBEBEB"/>
<path d="M24.2183 140.496L28.4572 138.05C30.824 136.119 32.6253 133.585 33.6712 130.714C34.9799 127.106 34.7974 124.364 33.8589 122.987C32.7066 121.293 29.719 121.59 29.5991 125.156C29.3488 132.185 27.2997 137.06 24.2183 140.496Z" fill="#003B95" fill-opacity="0.9"/>
<path opacity="0.2" d="M24.2183 140.496L28.4572 138.05C30.824 136.119 32.6253 133.585 33.6712 130.714C34.9799 127.106 34.7974 124.364 33.8589 122.987C32.7066 121.293 29.719 121.59 29.5991 125.156C29.3488 132.185 27.2997 137.06 24.2183 140.496Z" fill="black"/>
<path d="M24.2183 140.757C24.1631 140.756 24.1095 140.738 24.0653 140.705C24.0211 140.672 23.9885 140.625 23.9723 140.573C23.956 140.52 23.957 140.463 23.975 140.411C23.9929 140.359 24.027 140.314 24.0723 140.282C33.8745 133.504 31.9767 124.051 31.9558 123.957C31.9486 123.923 31.9482 123.888 31.9547 123.853C31.9612 123.819 31.9743 123.786 31.9934 123.757C32.0126 123.727 32.0373 123.702 32.0662 123.682C32.095 123.663 32.1275 123.649 32.1618 123.642C32.196 123.634 32.2313 123.634 32.2657 123.641C32.3001 123.647 32.3328 123.66 32.3621 123.679C32.3914 123.698 32.4167 123.723 32.4364 123.752C32.4562 123.781 32.47 123.813 32.4772 123.848C32.4772 123.947 34.4794 133.723 24.3851 140.71C24.3361 140.743 24.2775 140.76 24.2183 140.757Z" fill="white"/>
<path d="M15.7247 145.402C15.7247 145.402 14.2492 144.203 14.6037 142.576C14.9583 140.949 15.9124 139.781 14.2804 137.685C12.6485 135.589 12.1949 132.795 14.1449 131.283C15.6309 130.11 17.9511 131.768 18.7853 128.676C19.4006 126.413 19.192 121.402 22.0753 119.734C24.9587 118.065 26.7679 120.578 26.3143 123.978C25.918 127.018 25.3549 129.943 25.7929 130.756C26.6376 132.32 28.0818 132.107 28.0141 134.964C27.9567 137.623 25.4384 139.823 25.4384 139.823L15.7247 145.402Z" fill="#003B95" fill-opacity="0.9"/>
<path d="M20.5685 142.853C20.5048 142.852 20.4434 142.828 20.3955 142.786C20.3477 142.744 20.3166 142.686 20.3078 142.623C19.5622 136.445 21.3506 125.777 22.8105 122.607C22.8228 122.572 22.8425 122.539 22.8682 122.512C22.894 122.486 22.9252 122.464 22.9598 122.451C22.9944 122.437 23.0315 122.431 23.0687 122.432C23.1059 122.434 23.1423 122.444 23.1755 122.461C23.2066 122.475 23.2346 122.495 23.2578 122.52C23.2811 122.545 23.299 122.574 23.3107 122.606C23.3224 122.638 23.3275 122.673 23.3258 122.707C23.324 122.741 23.3155 122.774 23.3006 122.805C21.8564 125.933 20.1305 136.632 20.8448 142.54C20.8522 142.608 20.8322 142.677 20.7892 142.73C20.7462 142.784 20.6838 142.819 20.6154 142.826L20.5685 142.853Z" fill="white"/>
<path d="M20.4277 138.04C20.3878 138.042 20.3481 138.033 20.313 138.014C18.5037 137.133 17.3567 133.989 17.3097 133.843C17.297 133.81 17.2908 133.776 17.2917 133.741C17.2925 133.706 17.3004 133.672 17.3147 133.64C17.329 133.608 17.3496 133.58 17.3752 133.556C17.4008 133.532 17.4308 133.514 17.4636 133.502C17.4964 133.49 17.5312 133.485 17.566 133.487C17.6008 133.489 17.6349 133.498 17.6663 133.513C17.6976 133.528 17.7256 133.549 17.7485 133.576C17.7715 133.602 17.7889 133.632 17.7999 133.666C17.7999 133.697 18.9209 136.742 20.5424 137.529C20.5956 137.555 20.6385 137.598 20.664 137.651C20.6895 137.705 20.6961 137.765 20.6828 137.823C20.6694 137.88 20.6369 137.931 20.5906 137.968C20.5442 138.005 20.4868 138.025 20.4277 138.024V138.04Z" fill="white"/>
<path d="M20.3964 140.126C20.3442 140.126 20.2932 140.11 20.2503 140.08C20.2074 140.05 20.1747 140.008 20.1566 139.959C20.1306 139.895 20.1309 139.824 20.1572 139.76C20.1836 139.697 20.234 139.646 20.2974 139.62C23.3423 138.4 25.2402 134.776 25.2611 134.734C25.2929 134.673 25.3478 134.626 25.4138 134.605C25.4798 134.584 25.5515 134.591 25.613 134.622C25.6746 134.654 25.7209 134.709 25.742 134.775C25.763 134.841 25.7569 134.913 25.7251 134.974C25.6417 135.131 23.7177 138.812 20.5111 140.105C20.4754 140.122 20.4358 140.129 20.3964 140.126Z" fill="white"/>
<path d="M126.829 112.074C126.829 112.074 124.551 108.383 124.327 104.373C124.103 100.364 124.984 98.6954 126.193 98.2157C127.403 97.736 127.497 99.2116 128.117 100.082C128.738 100.953 130.005 100.458 130.474 97.7412C130.943 95.0248 132.653 90.4417 136.209 89.5501C140.12 88.5803 138.024 93.1686 137.038 94.957C136.053 96.7454 135.292 99.1855 135.938 99.8477C136.585 100.51 137.591 99.2846 138.545 100.421C139.708 101.793 136.095 106.73 134.019 107.924L126.829 112.074Z" fill="#003B95" fill-opacity="0.9"/>
<path d="M129.953 110.526C129.918 110.524 129.885 110.516 129.854 110.502C129.822 110.488 129.794 110.467 129.771 110.442C129.748 110.417 129.73 110.387 129.718 110.355C129.706 110.323 129.701 110.289 129.702 110.255C130.055 103.805 132.067 97.5551 135.542 92.1101C135.562 92.0817 135.587 92.0576 135.616 92.0393C135.645 92.0209 135.678 92.0087 135.712 92.0033C135.746 91.998 135.781 91.9996 135.815 92.0081C135.848 92.0166 135.879 92.0317 135.907 92.0527C135.962 92.0933 135.998 92.1537 136.009 92.2209C136.02 92.2881 136.004 92.3569 135.964 92.4125C132.551 97.7779 130.576 103.931 130.229 110.281C130.227 110.315 130.218 110.349 130.203 110.379C130.188 110.41 130.167 110.438 130.142 110.461C130.116 110.483 130.086 110.501 130.054 110.512C130.021 110.523 129.987 110.528 129.953 110.526Z" fill="white"/>
<path d="M130.25 107.444C130.206 107.444 130.163 107.433 130.125 107.413C128.665 106.605 127.857 104.207 127.825 104.107C127.814 104.075 127.809 104.041 127.811 104.006C127.813 103.972 127.821 103.938 127.836 103.907C127.851 103.876 127.873 103.848 127.898 103.825C127.924 103.802 127.954 103.785 127.987 103.774C128.053 103.752 128.124 103.758 128.186 103.789C128.247 103.821 128.294 103.875 128.315 103.941C128.315 103.941 129.098 106.25 130.401 106.954C130.46 106.989 130.503 107.046 130.522 107.112C130.54 107.178 130.532 107.248 130.5 107.309C130.477 107.354 130.44 107.391 130.396 107.415C130.351 107.439 130.3 107.449 130.25 107.444Z" fill="white"/>
<path d="M130.505 105.865C130.447 105.864 130.392 105.844 130.346 105.808C130.301 105.772 130.269 105.723 130.255 105.667C130.246 105.634 130.244 105.599 130.249 105.566C130.254 105.532 130.266 105.5 130.283 105.471C130.301 105.442 130.324 105.416 130.351 105.396C130.379 105.376 130.41 105.362 130.443 105.354C134.207 104.4 135.511 102.429 135.521 102.408C135.54 102.379 135.564 102.353 135.592 102.334C135.62 102.314 135.652 102.3 135.686 102.292C135.719 102.285 135.754 102.284 135.788 102.29C135.822 102.296 135.854 102.308 135.883 102.327C135.913 102.345 135.938 102.369 135.958 102.398C135.977 102.426 135.991 102.458 135.999 102.491C136.006 102.525 136.007 102.56 136.001 102.594C135.995 102.628 135.983 102.66 135.964 102.689C135.907 102.778 134.551 104.848 130.573 105.859L130.505 105.865Z" fill="white"/>
<path d="M70.1013 103.972C70.1013 103.972 65.1011 102.752 64.8404 93.3875C64.5641 83.2828 66.0657 71.4888 60.1478 70.5347C54.2299 69.5805 50.9451 76.7914 51.0181 85.212C51.0859 92.5846 54.0579 108.591 70.0804 111.73L70.1013 103.972Z" fill="#003B95" fill-opacity="0.9"/>
<path opacity="0.2" d="M70.1013 103.972C70.1013 103.972 65.1011 102.752 64.8404 93.3875C64.5641 83.2828 66.0657 71.4888 60.1478 70.5347C54.2299 69.5805 50.9451 76.7914 51.0181 85.212C51.0859 92.5846 54.0579 108.591 70.0804 111.73L70.1013 103.972Z" fill="black"/>
<path d="M70.1013 110.771H70.0544C66.4515 110.114 63.516 108.127 61.3314 104.874C54.8556 95.2124 56.8943 77.172 57.5669 74.0228C57.5819 73.9557 57.6224 73.8971 57.6797 73.8591C57.7371 73.8212 57.8069 73.807 57.8745 73.8195C57.942 73.8357 58.0007 73.8771 58.0386 73.9353C58.0764 73.9935 58.0904 74.064 58.0779 74.1323C57.4157 77.2607 55.3874 95.0716 61.7641 104.582C62.6923 106.057 63.9169 107.323 65.3602 108.299C66.8035 109.276 68.434 109.942 70.1482 110.255C70.1822 110.261 70.2147 110.274 70.2436 110.293C70.2726 110.312 70.2975 110.336 70.3169 110.365C70.3363 110.393 70.3499 110.426 70.3567 110.46C70.3635 110.494 70.3636 110.528 70.3568 110.562C70.3457 110.622 70.314 110.675 70.2672 110.713C70.2204 110.752 70.1616 110.772 70.1013 110.771Z" fill="white"/>
<path d="M70.1013 134.802C64.9342 135.501 56.5449 135.49 51.7011 131.674C46.8574 127.857 47.8689 124.572 49.7303 123.201C51.5916 121.83 53.208 120.266 50.0066 117.221C46.8052 114.176 41.6642 109.285 39.9958 101.949C38.3273 94.6129 39.1511 90.0246 42.4255 88.4969C45.6008 87.0161 46.4402 89.3728 48.3851 94.2322C50.3299 99.0917 54.7044 94.9257 58.448 96.443C62.1917 97.9602 62.0405 100.963 62.2751 103.544C62.5097 106.125 63.7454 106.84 65.8675 106.84C67.9896 106.84 70.1013 108.06 70.1013 110.489V134.802Z" fill="#003B95" fill-opacity="0.9"/>
<path d="M70.1013 126.282C70.079 126.287 70.0559 126.287 70.0335 126.282C69.8093 126.22 64.465 124.666 56.6805 117.518C48.3903 109.905 44.4798 98.4868 44.4381 98.3721C44.4181 98.3064 44.4243 98.2355 44.4554 98.1743C44.4865 98.113 44.5401 98.0662 44.605 98.0436C44.67 98.022 44.7409 98.0268 44.8023 98.0571C44.8638 98.0873 44.9109 98.1405 44.9334 98.2052C44.9699 98.3199 48.8439 109.613 57.0351 117.132C64.7101 124.186 70.117 125.766 70.1743 125.782C70.2072 125.792 70.2378 125.808 70.2645 125.829C70.2912 125.85 70.3134 125.877 70.3299 125.907C70.3464 125.937 70.3568 125.97 70.3605 126.004C70.3642 126.038 70.3612 126.072 70.3516 126.105C70.3347 126.158 70.3011 126.204 70.256 126.236C70.2109 126.268 70.1566 126.284 70.1013 126.282Z" fill="white"/>
<path d="M58.8547 119.332C58.8023 119.333 58.751 119.317 58.7079 119.287C58.6649 119.258 58.6324 119.215 58.6149 119.165C56.9412 114.869 56.5606 105.677 56.5293 105.286C56.5278 105.217 56.5531 105.15 56.5998 105.1C56.6464 105.049 56.7109 105.019 56.7796 105.015C56.8477 105.016 56.913 105.042 56.963 105.088C57.0131 105.134 57.0443 105.197 57.0507 105.265C57.0507 105.359 57.4417 114.76 59.0841 118.978C59.0967 119.01 59.1028 119.044 59.1019 119.079C59.1011 119.113 59.0935 119.147 59.0794 119.179C59.0653 119.21 59.0451 119.239 59.02 119.262C58.9949 119.286 58.9653 119.304 58.9329 119.317C58.9078 119.326 58.8814 119.331 58.8547 119.332Z" fill="white"/>
<path d="M58.813 125.511C58.3323 125.515 57.8518 125.49 57.374 125.438C57.3398 125.434 57.3067 125.423 57.2766 125.406C57.2465 125.389 57.2201 125.366 57.1988 125.339C57.1775 125.312 57.1618 125.281 57.1524 125.248C57.1431 125.215 57.1405 125.18 57.1446 125.146C57.1487 125.112 57.1595 125.078 57.1764 125.048C57.1933 125.018 57.2159 124.992 57.243 124.971C57.2702 124.949 57.3012 124.934 57.3344 124.924C57.3676 124.915 57.4023 124.912 57.4366 124.916C57.4835 124.916 62.3377 125.469 64.5641 123.201C64.5872 123.174 64.6158 123.151 64.6481 123.135C64.6803 123.119 64.7155 123.11 64.7513 123.109C64.7872 123.107 64.8231 123.113 64.8566 123.126C64.8902 123.139 64.9207 123.158 64.9463 123.184C64.9718 123.209 64.9919 123.239 65.0053 123.272C65.0186 123.306 65.0249 123.341 65.0238 123.377C65.0227 123.413 65.0141 123.449 64.9987 123.481C64.9833 123.513 64.9614 123.542 64.9343 123.566C63.3231 125.229 60.5128 125.511 58.813 125.511Z" fill="white"/>
<path d="M55.059 26.779L54.4959 23.5307L51.5969 25.439C51.332 24.9177 50.9565 24.4604 50.4967 24.0991L51.8836 20.345L49.2767 19.7662L47.3683 23.416C46.6779 23.5325 46.0085 23.7504 45.3818 24.0626L44.5528 21.3096L41.4557 23.7445L41.659 26.9772C41.0283 27.6837 40.4564 28.4405 39.9489 29.24L37.394 29.1097L35.6004 33.1297L37.7955 34.0682C37.5663 34.8997 37.4213 35.7521 37.3627 36.6126L34.5732 39.1779L35.1311 42.4314L38.0353 40.5231C38.2987 41.044 38.6745 41.4999 39.1355 41.8579L37.7746 45.6171L40.3816 46.1907L43.1137 43.5315C43.7446 43.4325 43.5882 42.2437 44.2765 41.9048L45.1055 44.6473L48.1974 42.2176L48.1192 40.9454C48.7448 40.2467 51.112 38.7086 51.6229 37.9057L52.2643 36.8629L54.0579 32.8429L53.2236 31.3308L52.2956 29.36L55.059 26.779ZM45.5956 37.4729C43.218 39.3395 42.4672 39.7514 42.0657 37.2539C41.6642 34.7564 43.0251 30.9606 45.4027 29.0888C47.7803 27.217 48.6875 27.0867 49.115 29.5789C49.5426 32.0712 47.9784 35.6272 45.5956 37.4729Z" fill="#E0E0E0"/>
<path d="M49.2975 19.7662L52.6813 21.7163L50.773 25.3556L47.3892 23.4056L49.2975 19.7662Z" fill="#F5F5F5"/>
<path d="M57.8797 25.4807L54.9807 27.389L51.5969 25.439L54.4958 23.5306L57.8797 25.4807Z" fill="#F5F5F5"/>
<path d="M57.4156 34.7773L55.2205 33.8439L51.8367 31.8939L54.0318 32.8272L57.4156 34.7773Z" fill="#E0E0E0"/>
<path d="M37.7694 45.6171L41.1532 47.5619L42.5402 43.8078L39.1563 41.8578L37.7694 45.6171Z" fill="#E0E0E0"/>
<path d="M48.4581 46.5974L45.0794 44.6473L44.2504 41.9048L47.6342 43.8548L48.4581 46.5974Z" fill="#E0E0E0"/>
<path d="M58.4376 28.729L57.8797 25.4807L54.9807 27.389C54.7139 26.8674 54.3367 26.4101 53.8754 26.049L55.2623 22.2949L52.6814 21.7162L50.7679 25.366C50.0774 25.4824 49.408 25.7003 48.7813 26.0125L47.9575 23.2699L44.8604 25.7049L45.0638 28.9375C44.4324 29.649 43.8604 30.4111 43.3536 31.2161L40.7935 31.0857L38.9999 35.1057L41.195 36.0442C40.9679 36.8779 40.823 37.7319 40.7622 38.5938L37.978 41.1226L38.5359 44.3761L41.4348 42.4678C41.7017 42.9879 42.079 43.4435 42.5402 43.8026L41.1533 47.5567L43.7603 48.1354L45.6686 44.4856C46.3617 44.3705 47.0332 44.1507 47.6603 43.8339L48.4841 46.5764L51.5812 44.1467L51.3779 40.9141C52.0086 40.2076 52.5805 39.4508 53.0881 38.6512L55.6481 38.7763L57.4417 34.7563L55.2154 33.823C55.4462 32.9899 55.5929 32.1358 55.6533 31.2734L58.4376 28.729ZM48.9847 39.4437C46.6123 41.3103 44.339 40.8046 43.9063 38.3123C43.4735 35.82 45.0533 32.2797 47.4309 30.4131C49.8085 28.5465 52.0766 29.0575 52.5093 31.5498C52.9421 34.042 51.3622 37.5771 48.9847 39.4437Z" fill="#EBEBEB"/>
<path d="M47.9575 23.2596L44.5736 21.3096L41.4765 23.7445L44.8604 25.6945L47.9575 23.2596Z" fill="#F5F5F5"/>
<path d="M41.4765 23.7445L41.6799 26.9772L45.0637 28.9272L44.8604 25.6945L41.4765 23.7445Z" fill="#E0E0E0"/>
<path d="M43.3535 31.19L39.9697 29.24L37.4148 29.1149L40.7935 31.0649L43.3535 31.19Z" fill="#F5F5F5"/>
<path d="M37.4148 29.1149L35.6212 33.1296L38.9999 35.0797L40.7935 31.0649L37.4148 29.1149Z" fill="#E0E0E0"/>
<path d="M40.7622 38.5626L37.3836 36.6125L34.5941 39.1778L37.9727 41.1278L40.7622 38.5626Z" fill="#F5F5F5"/>
<path d="M38.5359 44.3814L35.152 42.4314L34.5941 39.1779L37.9727 41.1279L38.5359 44.3814Z" fill="#E0E0E0"/>
<path d="M52.6814 21.7163L49.2975 19.7662L51.8836 20.345L55.2623 22.295L52.6814 21.7163Z" fill="#F5F5F5"/>
<path d="M39.9071 12.0339V7.17965L36.0436 8.92112C35.8389 8.09754 35.4855 7.31829 35.0008 6.62176L37.4357 1.7154L34.4637 0L31.4292 4.56223C30.5835 4.48835 29.7315 4.57143 28.9161 4.80729L28.4885 0.589182L24.286 3.01889L23.8637 7.71148C22.9491 8.52189 22.1081 9.41175 21.3506 10.3706L18.316 9.32781L15.3441 14.4792L17.7738 16.5648C17.3248 17.7002 16.9759 18.8725 16.731 20.0686L12.8674 22.7851V27.6445L16.731 25.903C16.9356 26.7266 17.289 27.5059 17.7738 28.2024L15.3545 33.114L18.3265 34.8294L21.361 30.2671C22.2067 30.3408 23.0586 30.2577 23.8741 30.0221L24.2965 34.2402L28.4989 31.8105L28.9265 27.1179C30.2381 26.6393 31.4001 25.8227 32.2947 24.7508L34.4742 25.5172L37.4461 20.371L35.6212 18.8068C36.0174 17.5025 36.1642 16.1351 36.054 14.7764L39.9071 12.0339ZM26.3873 24.1616C23.165 26.023 21.1733 24.683 21.1733 20.9758C21.1733 17.2687 23.8376 12.6856 27.0651 10.8242C30.2925 8.96283 32.2426 10.3028 32.2426 14.0412C32.2426 17.7797 29.6147 22.295 26.3873 24.1616Z" fill="#E0E0E0"/>
<path d="M37.8424 1.94482L34.4637 0L31.4292 4.56223L34.8079 6.51226L37.8424 1.94482Z" fill="#F5F5F5"/>
<path d="M43.291 9.12971L39.9071 7.17969L36.0435 8.92115L39.4274 10.8712L43.291 9.12971Z" fill="#F5F5F5"/>
<path d="M27.6647 36.1902L24.286 34.2402L23.8637 30.0221L27.2424 31.9721L27.6647 36.1902Z" fill="#E0E0E0"/>
<path d="M15.3389 33.114L18.7227 35.064L21.1577 30.1577L17.7738 28.2076L15.3389 33.114Z" fill="#E0E0E0"/>
<path d="M43.291 14.0099V9.15571L39.4274 10.8815C39.2249 10.0572 38.8713 9.27758 38.3846 8.58217L40.8195 3.67581L37.8476 1.9552L34.813 6.52265C33.9674 6.4462 33.1149 6.52933 32.2999 6.7677L31.8724 2.53917L27.6699 4.96888L27.2423 9.66146C26.3291 10.4732 25.4882 11.363 24.7292 12.3206L21.6947 11.2778L18.7227 16.4292L21.1576 18.5148C20.7063 19.6493 20.3573 20.8219 20.1148 22.0186L16.2513 24.7351V29.5945L20.1148 27.853C20.3172 28.6774 20.6708 29.457 21.1576 30.1524L18.7227 35.0587L21.6947 36.7741L24.7292 32.2119C25.5749 32.2858 26.4269 32.2027 27.2423 31.9669L27.6699 36.185L31.8724 33.7552L32.2947 29.0627C33.2093 28.2523 34.0503 27.3624 34.8078 26.4035L37.8424 27.4463L40.8143 22.3001L38.3794 20.2146C38.8306 19.08 39.1796 17.9074 39.4222 16.7108L43.291 14.0099ZM29.7711 26.1376C26.5437 27.999 23.9263 26.487 23.9263 22.7642C23.9263 19.0414 26.5332 14.5105 29.7711 12.6439C33.009 10.7773 35.6108 12.2945 35.6108 16.0173C35.6108 19.7401 32.9934 24.245 29.7711 26.1116V26.1376Z" fill="#EBEBEB"/>
<path d="M21.3505 10.381L24.7292 12.3311L21.6947 11.2726L18.316 9.31738L21.3505 10.381Z" fill="#F0F0F0"/>
<path d="M18.3157 9.32268L15.3429 14.4758L18.7256 16.4273L21.6984 11.2741L18.3157 9.32268Z" fill="#F5F5F5"/>
<path d="M15.3389 14.4688L18.7227 16.4188L21.1577 18.5148L17.7738 16.57L15.3389 14.4688Z" fill="#E0E0E0"/>
<path d="M16.731 20.0739L20.1149 22.0239L16.2513 24.7404L12.8674 22.7903L16.731 20.0739Z" fill="#F5F5F5"/>
<path d="M12.8674 22.7903L16.2513 24.7403V29.5997L12.8674 27.6497V22.7903Z" fill="#E0E0E0"/>
<path d="M31.8723 2.53926L28.4885 0.589233L24.286 3.01895L27.6647 4.96898L31.8723 2.53926Z" fill="#F5F5F5"/>
<path d="M75.2527 141.779L124.264 113.477C124.372 113.439 124.466 113.369 124.532 113.275C124.598 113.182 124.633 113.07 124.633 112.956C124.633 112.841 124.598 112.73 124.532 112.636C124.466 112.543 124.372 112.472 124.264 112.434L119.733 109.827C119.452 109.686 119.143 109.613 118.828 109.613C118.514 109.613 118.205 109.686 117.924 109.827L68.8968 138.103C68.7889 138.141 68.6953 138.211 68.6292 138.305C68.563 138.398 68.5275 138.51 68.5275 138.624C68.5275 138.739 68.563 138.85 68.6292 138.944C68.6953 139.037 68.7889 139.108 68.8968 139.146L73.4434 141.753C73.722 141.898 74.0308 141.976 74.345 141.98C74.6591 141.985 74.97 141.916 75.2527 141.779Z" fill="#E0E0E0"/>
<path d="M122.919 4.20771L78.7252 29.7249C78.0683 30.1537 77.5215 30.7311 77.1293 31.4105C76.7371 32.0899 76.5104 32.8521 76.4676 33.6354V138.473C76.4676 139.912 77.4791 140.496 78.7252 139.776L122.919 114.259C123.577 113.831 124.124 113.254 124.516 112.575C124.909 111.895 125.135 111.132 125.177 110.349V5.51121C125.177 4.07215 124.17 3.48818 122.919 4.20771Z" fill="#455A64"/>
<path d="M78.7252 29.7249L122.919 4.20769C124.035 3.56115 124.958 3.96263 125.145 5.08364C125.041 4.37883 124.789 3.70409 124.405 3.10379C124.021 2.50348 123.515 1.99122 122.919 1.6007L121.084 0.557903C120.384 0.202936 119.61 0.0179443 118.826 0.0179443C118.041 0.0179443 117.268 0.202936 116.568 0.557903L72.3694 26.0543C71.7037 26.4717 71.1547 27.0511 70.7739 27.7384L77.1297 31.3882C77.5104 30.7063 78.0598 30.1336 78.7252 29.7249Z" fill="#37474F"/>
<path d="M70.1013 134.802C70.1441 135.586 70.3708 136.348 70.763 137.027C71.1552 137.707 71.702 138.284 72.3589 138.713L74.1994 139.756C74.8365 140.074 75.5336 140.255 76.2452 140.285C76.9569 140.316 77.6669 140.196 78.3289 139.933C77.2861 140.34 76.4571 139.74 76.4571 138.452V33.6354C76.4832 32.8488 76.7113 32.0821 77.1193 31.4091L70.7634 27.7593C70.3611 28.4272 70.1334 29.1857 70.1013 29.9648V134.802Z" fill="#263238"/>
<path d="M79.9401 43.6932L121.72 19.5786C122.471 19.151 123.075 19.5004 123.075 20.3607V97.9551C123.05 98.4253 122.914 98.883 122.679 99.2908C122.443 99.6985 122.115 100.045 121.72 100.301L79.9557 124.416C79.2049 124.849 78.6001 124.499 78.6001 123.634V46.0395C78.6238 45.5707 78.7575 45.1141 78.9902 44.7065C79.223 44.2989 79.5484 43.9518 79.9401 43.6932Z" fill="white"/>
<path d="M100.822 20.9394C100.591 21.0908 100.4 21.2942 100.262 21.5333C100.124 21.7724 100.045 22.0404 100.03 22.3159C100.03 22.8373 100.384 23.0302 100.822 22.7747C101.054 22.6242 101.246 22.421 101.384 22.1817C101.522 21.9425 101.601 21.6739 101.615 21.3982C101.615 20.8924 101.26 20.6891 100.822 20.9394Z" fill="#37474F"/>
<path d="M100.822 116.068C99.9106 116.665 99.1524 117.467 98.6088 118.411C98.0653 119.355 97.7518 120.414 97.6937 121.501C97.6937 123.498 99.0962 124.312 100.822 123.311C101.733 122.714 102.491 121.911 103.035 120.968C103.578 120.024 103.892 118.965 103.95 117.878C103.961 115.881 102.553 115.067 100.822 116.068Z" fill="#37474F"/>
<path d="M93.3191 29.0106C92.8609 29.3147 92.4806 29.7224 92.2089 30.2006C91.9372 30.6788 91.7817 31.2142 91.7549 31.7635C91.7549 32.775 92.464 33.1869 93.3191 32.6812C93.7822 32.3799 94.1676 31.9735 94.4439 31.4951C94.7203 31.0167 94.8798 30.4799 94.9094 29.9282C94.9094 28.9167 94.2003 28.5048 93.3191 29.0106Z" fill="#37474F"/>
<path d="M97.214 28.6665C97.214 29.3443 97.7354 29.5998 98.3454 29.24L108.773 23.2075C109.096 23.0057 109.367 22.7306 109.564 22.4044C109.76 22.0783 109.877 21.7103 109.905 21.3304C109.905 20.6578 109.383 20.4024 108.773 20.7621L98.3454 26.7947C98.0231 26.9959 97.7527 27.2702 97.5561 27.5954C97.3595 27.9206 97.2423 28.2876 97.214 28.6665Z" fill="#37474F"/>
<path d="M73.6259 47.051C73.996 47.292 74.304 47.6168 74.525 47.9991C74.746 48.3814 74.8739 48.8104 74.8982 49.2513C74.8982 50.0647 74.3298 50.3931 73.6259 49.9865C73.2572 49.7446 72.9504 49.4194 72.7303 49.0372C72.5103 48.655 72.3831 48.2265 72.3589 47.7862C72.3589 46.978 72.9273 46.6495 73.6259 47.051Z" fill="#37474F"/>
<path d="M73.6259 56.8428C73.996 57.0838 74.304 57.4086 74.525 57.7909C74.746 58.1732 74.8739 58.6022 74.8982 59.0431C74.8982 59.8512 74.3298 60.1797 73.6259 59.7782C73.2572 59.5364 72.9504 59.2112 72.7303 58.829C72.5103 58.4468 72.3831 58.0183 72.3589 57.578C72.3589 56.7646 72.9273 56.4361 73.6259 56.8428Z" fill="#37474F"/>
<path d="M73.2297 47.2491C73.5997 47.4901 73.9077 47.815 74.1287 48.1972C74.3498 48.5795 74.4776 49.0085 74.5019 49.4494C74.5019 50.2576 73.9336 50.5861 73.2297 50.1846C72.8597 49.9436 72.5516 49.6188 72.3306 49.2365C72.1096 48.8542 71.9817 48.4252 71.9575 47.9843C71.9627 47.1709 72.531 46.8581 73.2297 47.2491Z" fill="#455A64"/>
<path d="M73.2297 57.0357C73.6004 57.2773 73.9088 57.6029 74.1299 57.9861C74.3509 58.3694 74.4784 58.7994 74.5019 59.2412C74.5019 60.0494 73.9336 60.3779 73.2297 59.9712C72.8588 59.7311 72.5501 59.4065 72.329 59.024C72.1078 58.6416 71.9805 58.2121 71.9575 57.7709C71.9627 56.9627 72.531 56.6342 73.2297 57.0357Z" fill="#455A64"/>
<path d="M131.532 22.8164C131.532 21.9509 130.928 21.6015 130.177 22.0343L125.177 24.9176L88.4128 46.1489C88.0179 46.4055 87.6893 46.7518 87.4537 47.1596C87.2181 47.5673 87.0822 48.025 87.0572 48.4952V126.069C87.0572 126.934 87.662 127.284 88.4128 126.851L125.192 105.614L130.177 102.736C130.572 102.48 130.9 102.133 131.136 101.726C131.371 101.318 131.507 100.86 131.532 100.39V22.8164Z" fill="white"/>
<path d="M132.054 22.8164C132.087 22.555 132.042 22.2896 131.924 22.0536C131.807 21.8176 131.623 21.6213 131.395 21.4894C131.167 21.3576 130.905 21.2959 130.642 21.3121C130.379 21.3283 130.126 21.4218 129.916 21.5807L125.145 24.3389L88.1521 45.7162C87.6758 46.0168 87.2798 46.4288 86.9982 46.9166C86.7166 47.4044 86.5579 47.9533 86.5358 48.5161V126.069C86.5148 126.329 86.5649 126.59 86.6806 126.824C86.7963 127.059 86.9733 127.257 87.1927 127.398C87.3794 127.507 87.5921 127.563 87.808 127.56C88.1136 127.55 88.4117 127.463 88.6735 127.305L125.693 105.927L130.453 103.179C130.927 102.876 131.321 102.463 131.602 101.976C131.883 101.489 132.043 100.941 132.069 100.38L132.054 22.8164ZM125.156 105.036L124.728 105.286L88.173 126.392C88.1115 126.439 88.0403 126.472 87.9646 126.488C87.8888 126.505 87.8104 126.504 87.735 126.486C87.6672 126.444 87.5994 126.298 87.5994 126.058V48.4953C87.6264 48.1167 87.739 47.7492 87.9287 47.4204C88.1183 47.0917 88.3801 46.8103 88.6944 46.5974L125.213 25.4808L130.427 22.4619C130.488 22.4147 130.56 22.3818 130.635 22.3655C130.711 22.3493 130.79 22.3501 130.865 22.368C130.933 22.4097 131.001 22.5557 131.001 22.7956V100.39C130.974 100.769 130.861 101.136 130.671 101.465C130.482 101.794 130.22 102.075 129.906 102.288L125.145 105.036H125.156Z" fill="#003B95" fill-opacity="0.9"/>
<path d="M109.295 40.8411C113.987 38.1403 117.768 40.3197 117.768 45.737C117.768 51.1544 113.972 57.7292 109.295 60.4092C104.618 63.0892 100.822 60.9306 100.822 55.5185C100.822 50.1064 104.618 43.5472 109.295 40.8411Z" fill="#003B95" fill-opacity="0.9"/>
<path d="M109.295 45.0958C110.812 44.2198 112.043 44.9289 112.043 46.66C111.991 47.6136 111.715 48.5416 111.238 49.3687C110.76 50.1958 110.095 50.8987 109.295 51.4203C107.778 52.2963 106.547 51.5872 106.547 49.8561C106.599 48.9025 106.874 47.9745 107.352 47.1474C107.829 46.3203 108.495 45.6174 109.295 45.0958Z" fill="#003B95" fill-opacity="0.9"/>
<path d="M114.65 54.4392C114.65 51.561 112.632 50.3931 110.134 51.8322L108.57 52.7342C106.078 54.1733 104.055 57.6771 104.055 60.5552V61.332C105.499 61.8065 107.313 61.551 109.269 60.4092C111.435 59.0731 113.266 57.2593 114.623 55.1066L114.65 54.4392Z" fill="#003B95" fill-opacity="0.9"/>
<path opacity="0.7" d="M109.295 45.0958C110.812 44.2198 112.043 44.9289 112.043 46.66C111.991 47.6136 111.715 48.5416 111.238 49.3687C110.76 50.1958 110.095 50.8987 109.295 51.4203C107.778 52.2963 106.547 51.5872 106.547 49.8561C106.599 48.9025 106.874 47.9745 107.352 47.1474C107.829 46.3203 108.495 45.6174 109.295 45.0958Z" fill="white"/>
<path opacity="0.7" d="M114.65 54.4392C114.65 51.561 112.632 50.3931 110.134 51.8322L108.57 52.7342C106.078 54.1733 104.055 57.6771 104.055 60.5552V61.332C105.499 61.8065 107.313 61.551 109.269 60.4092C111.435 59.0731 113.266 57.2593 114.623 55.1066L114.65 54.4392Z" fill="white"/>
<path d="M92.902 72.3231L103.804 66.0298C104.326 65.7431 104.706 65.9725 104.706 66.5512V66.911C104.69 67.2243 104.6 67.5293 104.443 67.8012C104.286 68.073 104.067 68.3039 103.804 68.4752L92.902 74.7684C92.4067 75.0552 92 74.8206 92 74.2471V73.8873C92.0169 73.574 92.1074 73.2692 92.2641 72.9974C92.4208 72.7257 92.6394 72.4946 92.902 72.3231Z" fill="#003B95" fill-opacity="0.9"/>
<path opacity="0.1" d="M92.902 72.3231L103.804 66.0298C104.326 65.7431 104.706 65.9725 104.706 66.5512V66.911C104.69 67.2243 104.6 67.5293 104.443 67.8012C104.286 68.073 104.067 68.3039 103.804 68.4752L92.902 74.7684C92.4067 75.0552 92 74.8206 92 74.2471V73.8873C92.0169 73.574 92.1074 73.2692 92.2641 72.9974C92.4208 72.7257 92.6394 72.4946 92.902 72.3231Z" fill="black"/>
<path d="M92.4536 79.9199L125.437 60.8785C125.682 60.7325 125.886 60.8472 125.886 61.1392V64.9871C125.876 65.1432 125.831 65.2951 125.753 65.4309C125.676 65.5666 125.567 65.6824 125.437 65.7692L92.4536 84.8106C92.2033 84.9566 92 84.8367 92 84.5499V80.702C92.009 80.5452 92.0547 80.3927 92.1335 80.2568C92.2123 80.121 92.322 80.0056 92.4536 79.9199Z" fill="#003B95" fill-opacity="0.9"/>
<path opacity="0.2" d="M92.4536 79.9199L125.437 60.8785C125.682 60.7325 125.886 60.8472 125.886 61.1392V64.9871C125.876 65.1432 125.831 65.2951 125.753 65.4309C125.676 65.5666 125.567 65.6824 125.437 65.7692L92.4536 84.8106C92.2033 84.9566 92 84.8367 92 84.5499V80.702C92.009 80.5452 92.0547 80.3927 92.1335 80.2568C92.2123 80.121 92.322 80.0056 92.4536 79.9199Z" fill="white"/>
<path d="M92.902 89.4406L103.804 83.1473C104.326 82.8605 104.706 83.0952 104.706 83.6687V84.0284C104.69 84.3419 104.6 84.6471 104.443 84.919C104.287 85.1908 104.068 85.4217 103.804 85.5926L92.902 91.8859C92.4067 92.1779 92 91.9433 92 91.3645V91.0048C92.0177 90.6917 92.1086 90.3871 92.2652 90.1155C92.4219 89.8439 92.6399 89.6127 92.902 89.4406Z" fill="#003B95" fill-opacity="0.9"/>
<path opacity="0.1" d="M92.902 89.4406L103.804 83.1473C104.326 82.8605 104.706 83.0952 104.706 83.6687V84.0284C104.69 84.3419 104.6 84.6471 104.443 84.919C104.287 85.1908 104.068 85.4217 103.804 85.5926L92.902 91.8859C92.4067 92.1779 92 91.9433 92 91.3645V91.0048C92.0177 90.6917 92.1086 90.3871 92.2652 90.1155C92.4219 89.8439 92.6399 89.6127 92.902 89.4406Z" fill="black"/>
<path d="M92.4536 97.0374L125.437 77.9959C125.682 77.8499 125.886 77.9699 125.886 78.2566V82.1046C125.876 82.2607 125.831 82.4126 125.753 82.5483C125.676 82.684 125.567 82.7998 125.437 82.8866L92.4536 101.928C92.2033 102.074 92 101.959 92 101.667V97.8195C92.009 97.6627 92.0547 97.5102 92.1335 97.3743C92.2123 97.2384 92.322 97.123 92.4536 97.0374Z" fill="#003B95" fill-opacity="0.9"/>
<path opacity="0.2" d="M92.4536 97.0374L125.437 77.9959C125.682 77.8499 125.886 77.9699 125.886 78.2566V82.1046C125.876 82.2607 125.831 82.4126 125.753 82.5483C125.676 82.684 125.567 82.7998 125.437 82.8866L92.4536 101.928C92.2033 102.074 92 101.959 92 101.667V97.8195C92.009 97.6627 92.0547 97.5102 92.1335 97.3743C92.2123 97.2384 92.322 97.123 92.4536 97.0374Z" fill="white"/>
<path d="M105.609 99.222L118.643 91.7086C119.165 91.4166 119.551 91.6513 119.551 92.23V96.2552C119.534 96.569 119.442 96.8744 119.285 97.1462C119.127 97.4181 118.907 97.6487 118.643 97.8194L105.609 105.338C105.087 105.625 104.706 105.39 104.706 104.817V100.786C104.725 100.473 104.816 100.169 104.972 99.8972C105.129 99.6257 105.347 99.3944 105.609 99.222Z" fill="#003B95" fill-opacity="0.9"/>
<path opacity="0.1" d="M105.609 99.222L118.643 91.7086C119.165 91.4166 119.551 91.6513 119.551 92.23V96.2552C119.534 96.569 119.442 96.8744 119.285 97.1462C119.127 97.4181 118.907 97.6487 118.643 97.8194L105.609 105.338C105.087 105.625 104.706 105.39 104.706 104.817V100.786C104.725 100.473 104.816 100.169 104.972 99.8972C105.129 99.6257 105.347 99.3944 105.609 99.222Z" fill="black"/>
<path d="M136.475 82.2348C136.475 82.2348 130.072 73.4023 129.697 72.3283C129.4 71.5357 129.697 70.3574 129.791 69.8099C129.885 69.2624 129.968 68.0424 130.062 67.7243C130.218 67.1299 129.452 67.2498 129.019 67.7921C128.586 68.3343 128.44 69.4189 128.216 69.5961C127.992 69.7734 126.287 67.2863 125.395 66.1393C124.504 64.9922 123.946 64.2935 123.399 64.7211C123.007 65.0287 123.299 65.6961 123.946 66.6763C124.324 67.2041 124.672 67.7524 124.989 68.3187C125.088 68.5325 124.556 68.5481 124.269 68.9913C124.045 69.3354 124.269 69.8933 123.956 70.1592C123.764 70.3057 123.632 70.518 123.586 70.7555C123.54 70.993 123.583 71.2391 123.706 71.4471C124.287 72.3585 125.035 73.1512 125.912 73.783C126.871 74.4451 127.257 74.6798 127.825 75.5818C128.394 76.4838 133.493 85.6969 133.837 86.2496C134.181 86.8023 134.843 87.9285 135.85 87.9598C136.856 87.991 145.094 80.9 145.516 80.5455C146.872 79.414 147.305 79.2524 147.534 80.2691C147.613 80.6306 147.672 80.9961 147.711 81.3641C147.873 82.6571 148.754 87.2767 148.754 87.2767C148.754 87.2767 152.925 89.2945 156.351 88.3195C159.776 87.3445 160.934 85.8898 160.934 85.8898L159.219 83.0951C159.683 81.9428 161.826 77.2711 162.519 74.0019L151.778 72.2657C151.559 72.2188 151.205 72.1301 150.735 72.0102C150.146 71.8538 148.65 71.3376 147.518 72.3283C143.827 75.5453 136.486 82.2348 136.486 82.2348" fill="#FFA8A7"/>
<path d="M157.769 136.429L155.845 139.104C156.72 139.512 157.675 139.717 158.64 139.703C160.366 139.766 160.84 139.182 160.903 139.067C161.195 138.441 160.741 137.315 160.616 136.345L157.769 136.429Z" fill="#37474F"/>
<path d="M155.955 137.821C155.955 137.821 153.619 137.67 152.008 137.472C150.397 137.274 149.119 138.056 149.494 138.718C149.87 139.38 150.761 139.933 152.148 140.397C153.332 140.798 154.755 141.085 155.986 141.44C157.216 141.794 158.071 142.258 158.786 142.008C159.584 141.732 159.928 141.413 159.86 140.83C159.686 139.999 159.47 139.177 159.213 138.369L155.955 137.821Z" fill="#37474F"/>
<path d="M160.903 133.744C160.903 133.744 160.611 136.174 160.59 136.695C160.569 137.216 158.217 137.383 157.769 136.429L157.696 133.457L160.903 133.744Z" fill="#F28F8F"/>
<path d="M158.536 135.235L159.375 138.926C159.375 138.926 159.453 139.375 157.535 139.662C155.616 139.948 152.602 138.655 152.086 138.395C151.57 138.134 151.512 137.607 153.4 137.712C155.287 137.816 155.955 137.821 155.955 137.821L155.339 136.189L158.536 135.235Z" fill="#FFA8A7"/>
<path d="M162.488 73.9707L163.817 73.6005C163.817 73.6005 166.596 82.3964 166.904 83.2463C167.212 84.0962 167.561 84.993 166.961 86.041C166.247 87.2872 162.488 92.2978 162.488 92.2978L160.1 89.9619L162.811 84.9982L160.413 80.1492L162.488 73.9707Z" fill="#F28F8F"/>
<path d="M148.832 62.5469C148.521 61.9617 148.362 61.3071 148.373 60.6442C148.383 59.9813 148.56 59.3318 148.89 58.7563C150.214 56.3005 153.165 55.1065 156.679 55.5602C158.306 55.7739 160.225 57.1243 161.273 59.1422C162.43 61.3789 162.54 65.8838 162.837 67.5888L148.832 62.5469Z" fill="#37474F"/>
<path d="M148.738 63.5115C148.738 63.5115 147.904 65.1017 148.05 65.2477C148.266 65.374 148.503 65.4622 148.749 65.5084L148.738 63.5115Z" fill="#FFA8A7"/>
<path d="M151.272 58.4852C150.365 59.0744 148.801 60.1589 148.733 63.7305C148.66 67.3803 149.182 68.5847 149.724 69.007C150.089 69.2938 152.232 69.1478 153.149 68.934C154.067 68.7202 156.711 67.4115 157.665 65.425C158.786 63.0892 158.556 59.6896 156.893 58.6468C156.047 58.1462 155.087 57.8688 154.104 57.8405C153.121 57.8123 152.146 58.0341 151.272 58.4852Z" fill="#FFA8A7"/>
<path d="M160.903 85.869C162.509 88.3717 164.031 90.5616 164.365 93.3876C165.053 99.3263 162.801 106.115 162.316 110.51C163.228 111.761 163.753 113.25 163.828 114.796C163.828 116.616 160.903 133.744 160.903 133.744C160.903 133.744 158.775 134.39 157.696 133.457L155.689 101.949L156.732 98.1114L160.903 85.869Z" fill="#003B95" fill-opacity="0.9"/>
<path opacity="0.2" d="M160.903 85.869C162.509 88.3717 164.031 90.5616 164.365 93.3876C165.053 99.3263 162.801 106.115 162.316 110.51C163.228 111.761 163.753 113.25 163.828 114.796C163.828 116.616 160.903 133.744 160.903 133.744C160.903 133.744 158.775 134.39 157.696 133.457L155.689 101.949L156.732 98.1114L160.903 85.869Z" fill="black"/>
<path d="M155.689 101.949L156.732 98.1114C158.728 97.5858 160.654 96.8207 162.467 95.8329C162.467 95.8329 161.382 97.809 158.264 98.8935L156.653 103.821L156.518 115.109L155.689 101.949Z" fill="#003B95" fill-opacity="0.9"/>
<path opacity="0.3" d="M155.689 101.949L156.732 98.1114C158.728 97.5858 160.654 96.8207 162.467 95.8329C162.467 95.8329 161.382 97.809 158.264 98.8935L156.653 103.821L156.518 115.109L155.689 101.949Z" fill="black"/>
<path d="M160.903 85.869C161.763 87.2768 163.817 89.6752 163.379 91.985C162.858 94.7797 161.346 96.7454 156.747 98.1114L152.43 113.753C152.43 113.753 154.677 115.839 155.365 117.857C156.054 119.875 158.536 135.245 158.536 135.245C158.536 135.245 157.764 136.502 155.339 136.2C155.339 136.2 146.887 116.908 146.293 115.651C145.572 114.379 145.319 112.894 145.579 111.454C145.845 109.431 148.707 87.2872 148.707 87.2872L160.903 85.869Z" fill="#003B95" fill-opacity="0.9"/>
<path opacity="0.2" d="M160.903 85.869C161.763 87.2768 163.817 89.6752 163.379 91.985C162.858 94.7797 161.346 96.7454 156.747 98.1114L152.43 113.753C152.43 113.753 154.677 115.839 155.365 117.857C156.054 119.875 158.536 135.245 158.536 135.245C158.536 135.245 157.764 136.502 155.339 136.2C155.339 136.2 146.887 116.908 146.293 115.651C145.572 114.379 145.319 112.894 145.579 111.454C145.845 109.431 148.707 87.2872 148.707 87.2872L160.903 85.869Z" fill="black"/>
<path d="M162.488 73.9707L151.747 72.2345C151.528 72.1876 151.173 72.0989 150.704 71.979C150.704 71.979 150.245 78.7155 147.487 80.2588C147.555 80.5821 147.612 80.9418 147.664 81.3537C147.826 82.6468 148.707 87.2664 148.707 87.2664C148.707 87.2664 152.878 89.2842 156.304 88.3092C159.73 87.3342 160.887 85.8795 160.887 85.8795L159.172 83.0848C159.651 81.9221 161.81 77.2503 162.488 73.9707Z" fill="#003B95" fill-opacity="0.9"/>
<path opacity="0.7" d="M162.488 73.9707L151.747 72.2345C151.528 72.1876 151.173 72.0989 150.704 71.979C150.704 71.979 150.245 78.7155 147.487 80.2588C147.555 80.5821 147.612 80.9418 147.664 81.3537C147.826 82.6468 148.707 87.2664 148.707 87.2664C148.707 87.2664 152.878 89.2842 156.304 88.3092C159.73 87.3342 160.887 85.8795 160.887 85.8795L159.172 83.0848C159.651 81.9221 161.81 77.2503 162.488 73.9707Z" fill="white"/>
<path d="M159.657 81.9741C158.23 82.8307 156.736 83.5683 155.188 84.1796C156.593 84.1516 157.968 83.7715 159.187 83.0743L159.657 81.9741Z" fill="#003B95" fill-opacity="0.9"/>
<path d="M151.007 58.6624C151.007 58.6624 150.485 62.0515 151.716 64.0432C151.716 64.0432 152.174 62.6928 153.316 62.9483C154.458 63.2038 154.521 64.7106 153.718 65.5553C153.514 65.7922 153.247 65.9668 152.948 66.059C152.649 66.1513 152.331 66.1574 152.029 66.0767C152.029 66.0767 151.846 68.5273 151.747 70.5816C151.648 72.6359 151.106 77.1147 153.415 78.9239C155.725 80.7332 161.523 81.3693 164.24 77.5735C165.752 75.4619 163.744 71.7286 162.811 67.5418C161.951 63.6939 161.466 57.9898 157.383 57.0721C153.301 56.1545 151.007 58.6624 151.007 58.6624Z" fill="#37474F"/>
<path d="M165.986 12.3571L165.126 12.8785C165.198 12.5724 165.238 12.2596 165.246 11.9452C165.246 10.1985 164.021 9.49466 162.509 10.381C162.048 10.6586 161.638 11.011 161.294 11.4238C161.294 9.07754 159.646 8.12338 157.613 9.29653C156.541 9.99534 155.649 10.9369 155.01 12.0448C154.37 13.1527 154.001 14.3958 153.932 15.6732C153.932 15.7931 153.932 15.9079 153.932 16.0226C153.408 15.9566 152.878 16.0786 152.435 16.3667C151.638 16.8859 150.975 17.5856 150.5 18.4091C150.024 19.2326 149.749 20.1566 149.698 21.1062C149.698 21.3269 149.72 21.5471 149.766 21.7632L149.307 22.0291C148.061 22.7486 147.049 24.1512 147.049 25.1575C147.049 26.1637 148.061 26.4036 149.307 25.6788L165.992 16.0591C167.238 15.3395 168.249 13.937 168.249 12.9307C168.249 11.9244 167.233 11.6324 165.986 12.3571Z" fill="#EBEBEB"/>
</svg>
